<svg xmlns="http://www.w3.org/2000/svg" width="486.545" height="110.288" viewBox="0 0 486.545 110.288">
  <g id="Group_12" data-name="Group 12" transform="translate(-69.771 -600)">
    <g id="Group_1" data-name="Group 1" transform="translate(-754.774 69.042)">
      <rect id="Rectangle_4" data-name="Rectangle 4" width="31.194" height="31.194" transform="translate(868.659 553.016) rotate(45)" fill="#0f50ad" opacity="0.6"/>
      <path id="Rectangle_11" data-name="Rectangle 11" d="M0,0H31.194V31.194H4a4,4,0,0,1-4-4Z" transform="translate(846.602 575.073) rotate(45)" fill="#0f50ad" opacity="0.8"/>
      <rect id="Rectangle_7" data-name="Rectangle 7" width="31.194" height="31.194" transform="translate(912.774 553.016) rotate(45)" fill="#0f50ad" opacity="0.6"/>
      <rect id="Rectangle_9" data-name="Rectangle 9" width="31.194" height="31.194" transform="translate(890.716 575.073) rotate(45)" fill="#0f50ad" opacity="0.8"/>
      <path id="Rectangle_13" data-name="Rectangle 13" d="M0,0H31.194V27.194a4,4,0,0,1-4,4H0Z" transform="translate(912.774 597.131) rotate(45)" fill="#0f50ad"/>
      <path id="Rectangle_14" data-name="Rectangle 14" d="M0,0H31.194V27.194a4,4,0,0,1-4,4H0Z" transform="translate(868.659 597.131) rotate(45)" fill="#0f50ad"/>
      <path id="Rectangle_15" data-name="Rectangle 15" d="M0,0H31.194V27.194a4,4,0,0,1-4,4H0Z" transform="translate(956.889 597.131) rotate(45)" fill="#0f50ad"/>
      <rect id="Rectangle_10" data-name="Rectangle 10" width="31.194" height="31.194" transform="translate(934.831 575.073) rotate(45)" fill="#0f50ad" opacity="0.8"/>
      <path id="Rectangle_12" data-name="Rectangle 12" d="M0,0H27.194a4,4,0,0,1,4,4V31.194H0Z" transform="translate(978.946 575.073) rotate(45)" fill="#0f50ad" opacity="0.8"/>
      <rect id="Rectangle_8" data-name="Rectangle 8" width="31.194" height="31.194" transform="translate(956.889 553.016) rotate(45)" fill="#0f50ad" opacity="0.6"/>
      <path id="Rectangle_5" data-name="Rectangle 5" d="M3,0H31.194V31.194H0V3A3,3,0,0,1,3,0Z" transform="translate(890.716 530.958) rotate(45)" fill="#0f50ad" opacity="0.4"/>
      <path id="Rectangle_6" data-name="Rectangle 6" d="M3,0H31.194V31.194H0V3A3,3,0,0,1,3,0Z" transform="translate(934.831 530.958) rotate(45)" fill="#0f50ad" opacity="0.4"/>
    </g>
    <path id="Path_295" data-name="Path 295" d="M-127.3.98c10.64,0,18.2-5.6,18.2-15.05,0-10.36-8.33-12.95-15.75-15.19-7.63-2.31-8.82-3.85-8.82-6.09,0-1.96,1.75-3.71,5.25-3.71,4.48,0,6.79,2.17,8.47,5.67l9.45-5.53c-3.57-7.21-9.87-11.06-17.92-11.06-8.47,0-16.45,5.46-16.45,14.91,0,9.38,7.14,12.88,14.42,14.91,7.35,2.03,10.15,3.22,10.15,6.23,0,1.89-1.33,3.99-6.65,3.99-5.53,0-8.54-2.73-10.29-6.79l-9.66,5.6C-144.165-3.92-137.585.98-127.3.98ZM-77.385-35v3.29c-2.31-2.66-5.74-4.27-10.43-4.27-9.17,0-16.73,8.05-16.73,18.48S-96.985.98-87.815.98c4.69,0,8.12-1.61,10.43-4.27V0h10.5V-35Zm-8.33,26.04c-4.83,0-8.33-3.29-8.33-8.54s3.5-8.54,8.33-8.54,8.33,3.29,8.33,8.54S-80.885-8.96-85.715-8.96Zm47.46-27.02c-4.69,0-8.12,1.61-10.43,4.27V-35h-10.5V14h10.5V-3.29c2.31,2.66,5.74,4.27,10.43,4.27,9.17,0,16.73-8.05,16.73-18.48S-29.085-35.98-38.255-35.98Zm-2.1,27.02c-4.83,0-8.33-3.29-8.33-8.54s3.5-8.54,8.33-8.54,8.33,3.29,8.33,8.54S-35.525-8.96-40.355-8.96ZM5.355-35.98c-4.69,0-8.12,1.61-10.43,4.27V-35h-10.5V14h10.5V-3.29C-2.765-.63.665.98,5.355.98c9.17,0,16.73-8.05,16.73-18.48S14.525-35.98,5.355-35.98ZM3.255-8.96c-4.83,0-8.33-3.29-8.33-8.54s3.5-8.54,8.33-8.54,8.33,3.29,8.33,8.54S8.085-8.96,3.255-8.96Zm45.29-27.02c-4.62,0-8.12,1.68-10.01,4.27V-49h-10.5V0h10.5V-19.11c0-4.97,2.66-7.21,6.51-7.21,3.36,0,6.09,2.03,6.09,6.37V0h10.5V-21.49C61.635-30.94,55.615-35.98,48.545-35.98Zm25.55-2.1a6.364,6.364,0,0,0,6.3-6.3,6.364,6.364,0,0,0-6.3-6.3,6.364,6.364,0,0,0-6.3,6.3A6.364,6.364,0,0,0,74.095-38.08ZM68.845,0h10.5V-35h-10.5Zm28.7-28.77V-35h-10.5V0h10.5V-15.82c0-6.93,6.16-8.68,10.5-7.98V-35.7C103.635-35.7,98.945-33.46,97.545-28.77Zm23.73,15.47h24.85a20.348,20.348,0,0,0,.42-4.2c0-10.57-7.56-18.48-17.78-18.48-11.06,0-18.62,8.05-18.62,18.48S117.565.98,129.535.98c6.65,0,11.83-2.45,15.26-7.21l-8.4-4.83a9.139,9.139,0,0,1-6.72,2.66C125.825-8.4,122.6-9.66,121.275-13.3Zm-.21-7.84c.98-3.57,3.64-5.53,7.63-5.53a7.206,7.206,0,0,1,7.42,5.53Z" transform="translate(409.771 691)" fill="#0c0d0d"/>
  </g>
</svg>
